<mxfile host="app.diagrams.net" agent="Mozilla/5.0 (Windows NT 10.0; Win64; x64) AppleWebKit/537.36 (KHTML, like Gecko) Chrome/128.0.0.0 Safari/537.36" version="24.7.14">
  <diagram id="C5RBs43oDa-KdzZeNtuy" name="Page-1">
    <mxGraphModel dx="1290" dy="522" grid="1" gridSize="10" guides="1" tooltips="1" connect="1" arrows="1" fold="1" page="1" pageScale="1" pageWidth="827" pageHeight="1169" math="0" shadow="0">
      <root>
        <mxCell id="WIyWlLk6GJQsqaUBKTNV-0" />
        <mxCell id="WIyWlLk6GJQsqaUBKTNV-1" parent="WIyWlLk6GJQsqaUBKTNV-0" />
        <mxCell id="zkfFHV4jXpPFQw0GAbJ--0" value="people" style="swimlane;fontStyle=2;align=center;verticalAlign=top;childLayout=stackLayout;horizontal=1;startSize=26;horizontalStack=0;resizeParent=1;resizeLast=0;collapsible=1;marginBottom=0;rounded=0;shadow=0;strokeWidth=1;" parent="WIyWlLk6GJQsqaUBKTNV-1" vertex="1">
          <mxGeometry x="60" y="621" width="170" height="110" as="geometry">
            <mxRectangle x="230" y="140" width="160" height="26" as="alternateBounds" />
          </mxGeometry>
        </mxCell>
        <mxCell id="zkfFHV4jXpPFQw0GAbJ--1" value="person_id INT(PK)" style="text;align=left;verticalAlign=top;spacingLeft=4;spacingRight=4;overflow=hidden;rotatable=0;points=[[0,0.5],[1,0.5]];portConstraint=eastwest;" parent="zkfFHV4jXpPFQw0GAbJ--0" vertex="1">
          <mxGeometry y="26" width="170" height="26" as="geometry" />
        </mxCell>
        <mxCell id="zkfFHV4jXpPFQw0GAbJ--2" value="person_name VARCHAR " style="text;align=left;verticalAlign=top;spacingLeft=4;spacingRight=4;overflow=hidden;rotatable=0;points=[[0,0.5],[1,0.5]];portConstraint=eastwest;rounded=0;shadow=0;html=0;" parent="zkfFHV4jXpPFQw0GAbJ--0" vertex="1">
          <mxGeometry y="52" width="170" height="26" as="geometry" />
        </mxCell>
        <mxCell id="zkfFHV4jXpPFQw0GAbJ--3" value="person_gender ENUM (&#39;M&#39;,&#39;F&#39;)" style="text;align=left;verticalAlign=top;spacingLeft=4;spacingRight=4;overflow=hidden;rotatable=0;points=[[0,0.5],[1,0.5]];portConstraint=eastwest;rounded=0;shadow=0;html=0;" parent="zkfFHV4jXpPFQw0GAbJ--0" vertex="1">
          <mxGeometry y="78" width="170" height="26" as="geometry" />
        </mxCell>
        <mxCell id="zkfFHV4jXpPFQw0GAbJ--6" value="genres" style="swimlane;fontStyle=0;align=center;verticalAlign=top;childLayout=stackLayout;horizontal=1;startSize=26;horizontalStack=0;resizeParent=1;resizeLast=0;collapsible=1;marginBottom=0;rounded=0;shadow=0;strokeWidth=1;" parent="WIyWlLk6GJQsqaUBKTNV-1" vertex="1">
          <mxGeometry x="590" y="630" width="160" height="90" as="geometry">
            <mxRectangle x="130" y="380" width="160" height="26" as="alternateBounds" />
          </mxGeometry>
        </mxCell>
        <mxCell id="zkfFHV4jXpPFQw0GAbJ--7" value="genre_id (PK)" style="text;align=left;verticalAlign=top;spacingLeft=4;spacingRight=4;overflow=hidden;rotatable=0;points=[[0,0.5],[1,0.5]];portConstraint=eastwest;" parent="zkfFHV4jXpPFQw0GAbJ--6" vertex="1">
          <mxGeometry y="26" width="160" height="26" as="geometry" />
        </mxCell>
        <mxCell id="zkfFHV4jXpPFQw0GAbJ--9" value="" style="line;html=1;strokeWidth=1;align=left;verticalAlign=middle;spacingTop=-1;spacingLeft=3;spacingRight=3;rotatable=0;labelPosition=right;points=[];portConstraint=eastwest;" parent="zkfFHV4jXpPFQw0GAbJ--6" vertex="1">
          <mxGeometry y="52" width="160" height="8" as="geometry" />
        </mxCell>
        <mxCell id="Q5q1Ceb7totYxLSW1xPY-16" value="genre_name VARCHAR" style="text;align=left;verticalAlign=top;spacingLeft=4;spacingRight=4;overflow=hidden;rotatable=0;points=[[0,0.5],[1,0.5]];portConstraint=eastwest;rounded=0;shadow=0;html=0;" vertex="1" parent="zkfFHV4jXpPFQw0GAbJ--6">
          <mxGeometry y="60" width="160" height="26" as="geometry" />
        </mxCell>
        <mxCell id="zkfFHV4jXpPFQw0GAbJ--13" value="cast" style="swimlane;fontStyle=0;align=center;verticalAlign=top;childLayout=stackLayout;horizontal=1;startSize=26;horizontalStack=0;resizeParent=1;resizeLast=0;collapsible=1;marginBottom=0;rounded=0;shadow=0;strokeWidth=1;" parent="WIyWlLk6GJQsqaUBKTNV-1" vertex="1">
          <mxGeometry x="60" y="450" width="180" height="90" as="geometry">
            <mxRectangle x="340" y="380" width="170" height="26" as="alternateBounds" />
          </mxGeometry>
        </mxCell>
        <mxCell id="zkfFHV4jXpPFQw0GAbJ--14" value="movie_id INT (PK) (FK movies)" style="text;align=left;verticalAlign=top;spacingLeft=4;spacingRight=4;overflow=hidden;rotatable=0;points=[[0,0.5],[1,0.5]];portConstraint=eastwest;" parent="zkfFHV4jXpPFQw0GAbJ--13" vertex="1">
          <mxGeometry y="26" width="180" height="26" as="geometry" />
        </mxCell>
        <mxCell id="zkfFHV4jXpPFQw0GAbJ--15" value="" style="line;html=1;strokeWidth=1;align=left;verticalAlign=middle;spacingTop=-1;spacingLeft=3;spacingRight=3;rotatable=0;labelPosition=right;points=[];portConstraint=eastwest;" parent="zkfFHV4jXpPFQw0GAbJ--13" vertex="1">
          <mxGeometry y="52" width="180" height="8" as="geometry" />
        </mxCell>
        <mxCell id="Q5q1Ceb7totYxLSW1xPY-8" value="act_id INT (PK) (FK person_id)" style="text;align=left;verticalAlign=top;spacingLeft=4;spacingRight=4;overflow=hidden;rotatable=0;points=[[0,0.5],[1,0.5]];portConstraint=eastwest;" vertex="1" parent="zkfFHV4jXpPFQw0GAbJ--13">
          <mxGeometry y="60" width="180" height="26" as="geometry" />
        </mxCell>
        <mxCell id="zkfFHV4jXpPFQw0GAbJ--17" value="movies" style="swimlane;fontStyle=0;align=center;verticalAlign=top;childLayout=stackLayout;horizontal=1;startSize=26;horizontalStack=0;resizeParent=1;resizeLast=0;collapsible=1;marginBottom=0;rounded=0;shadow=0;strokeWidth=1;" parent="WIyWlLk6GJQsqaUBKTNV-1" vertex="1">
          <mxGeometry x="320" y="450" width="210" height="236" as="geometry">
            <mxRectangle x="550" y="140" width="160" height="26" as="alternateBounds" />
          </mxGeometry>
        </mxCell>
        <mxCell id="zkfFHV4jXpPFQw0GAbJ--18" value="movie_id INT (PK)" style="text;align=left;verticalAlign=top;spacingLeft=4;spacingRight=4;overflow=hidden;rotatable=0;points=[[0,0.5],[1,0.5]];portConstraint=eastwest;fontStyle=0" parent="zkfFHV4jXpPFQw0GAbJ--17" vertex="1">
          <mxGeometry y="26" width="210" height="26" as="geometry" />
        </mxCell>
        <mxCell id="zkfFHV4jXpPFQw0GAbJ--19" value="title VARCHAR" style="text;align=left;verticalAlign=top;spacingLeft=4;spacingRight=4;overflow=hidden;rotatable=0;points=[[0,0.5],[1,0.5]];portConstraint=eastwest;rounded=0;shadow=0;html=0;" parent="zkfFHV4jXpPFQw0GAbJ--17" vertex="1">
          <mxGeometry y="52" width="210" height="26" as="geometry" />
        </mxCell>
        <mxCell id="zkfFHV4jXpPFQw0GAbJ--20" value="rating FLOAT" style="text;align=left;verticalAlign=top;spacingLeft=4;spacingRight=4;overflow=hidden;rotatable=0;points=[[0,0.5],[1,0.5]];portConstraint=eastwest;rounded=0;shadow=0;html=0;" parent="zkfFHV4jXpPFQw0GAbJ--17" vertex="1">
          <mxGeometry y="78" width="210" height="26" as="geometry" />
        </mxCell>
        <mxCell id="zkfFHV4jXpPFQw0GAbJ--21" value="meta_score FLOAT" style="text;align=left;verticalAlign=top;spacingLeft=4;spacingRight=4;overflow=hidden;rotatable=0;points=[[0,0.5],[1,0.5]];portConstraint=eastwest;rounded=0;shadow=0;html=0;" parent="zkfFHV4jXpPFQw0GAbJ--17" vertex="1">
          <mxGeometry y="104" width="210" height="26" as="geometry" />
        </mxCell>
        <mxCell id="zkfFHV4jXpPFQw0GAbJ--22" value="year YEAR" style="text;align=left;verticalAlign=top;spacingLeft=4;spacingRight=4;overflow=hidden;rotatable=0;points=[[0,0.5],[1,0.5]];portConstraint=eastwest;rounded=0;shadow=0;html=0;" parent="zkfFHV4jXpPFQw0GAbJ--17" vertex="1">
          <mxGeometry y="130" width="210" height="26" as="geometry" />
        </mxCell>
        <mxCell id="zkfFHV4jXpPFQw0GAbJ--24" value="revenue BIGINT" style="text;align=left;verticalAlign=top;spacingLeft=4;spacingRight=4;overflow=hidden;rotatable=0;points=[[0,0.5],[1,0.5]];portConstraint=eastwest;" parent="zkfFHV4jXpPFQw0GAbJ--17" vertex="1">
          <mxGeometry y="156" width="210" height="36" as="geometry" />
        </mxCell>
        <mxCell id="Q5q1Ceb7totYxLSW1xPY-32" value="" style="line;html=1;strokeWidth=1;align=left;verticalAlign=middle;spacingTop=-1;spacingLeft=3;spacingRight=3;rotatable=0;labelPosition=right;points=[];portConstraint=eastwest;" vertex="1" parent="zkfFHV4jXpPFQw0GAbJ--17">
          <mxGeometry y="192" width="210" height="8" as="geometry" />
        </mxCell>
        <mxCell id="Q5q1Ceb7totYxLSW1xPY-30" value="director_id INT (FK person ID)" style="text;align=left;verticalAlign=top;spacingLeft=4;spacingRight=4;overflow=hidden;rotatable=0;points=[[0,0.5],[1,0.5]];portConstraint=eastwest;" vertex="1" parent="zkfFHV4jXpPFQw0GAbJ--17">
          <mxGeometry y="200" width="210" height="36" as="geometry" />
        </mxCell>
        <mxCell id="Q5q1Ceb7totYxLSW1xPY-9" style="edgeStyle=orthogonalEdgeStyle;rounded=0;orthogonalLoop=1;jettySize=auto;html=1;exitX=1;exitY=0.5;exitDx=0;exitDy=0;entryX=0;entryY=0.5;entryDx=0;entryDy=0;" edge="1" parent="WIyWlLk6GJQsqaUBKTNV-1" source="zkfFHV4jXpPFQw0GAbJ--14" target="zkfFHV4jXpPFQw0GAbJ--18">
          <mxGeometry relative="1" as="geometry" />
        </mxCell>
        <mxCell id="Q5q1Ceb7totYxLSW1xPY-10" style="edgeStyle=orthogonalEdgeStyle;rounded=0;orthogonalLoop=1;jettySize=auto;html=1;exitX=0;exitY=0.5;exitDx=0;exitDy=0;entryX=0;entryY=0.5;entryDx=0;entryDy=0;" edge="1" parent="WIyWlLk6GJQsqaUBKTNV-1" source="Q5q1Ceb7totYxLSW1xPY-8" target="zkfFHV4jXpPFQw0GAbJ--1">
          <mxGeometry relative="1" as="geometry" />
        </mxCell>
        <mxCell id="Q5q1Ceb7totYxLSW1xPY-22" value="movie_genres" style="swimlane;fontStyle=0;childLayout=stackLayout;horizontal=1;startSize=30;horizontalStack=0;resizeParent=1;resizeParentMax=0;resizeLast=0;collapsible=1;marginBottom=0;whiteSpace=wrap;html=1;" vertex="1" parent="WIyWlLk6GJQsqaUBKTNV-1">
          <mxGeometry x="600" y="444" width="140" height="90" as="geometry" />
        </mxCell>
        <mxCell id="Q5q1Ceb7totYxLSW1xPY-23" value="movie_id INT (PK)(FK)" style="text;strokeColor=none;fillColor=none;align=left;verticalAlign=middle;spacingLeft=4;spacingRight=4;overflow=hidden;points=[[0,0.5],[1,0.5]];portConstraint=eastwest;rotatable=0;whiteSpace=wrap;html=1;" vertex="1" parent="Q5q1Ceb7totYxLSW1xPY-22">
          <mxGeometry y="30" width="140" height="30" as="geometry" />
        </mxCell>
        <mxCell id="Q5q1Ceb7totYxLSW1xPY-24" value="genre_id INT (PK) (FK)" style="text;strokeColor=none;fillColor=none;align=left;verticalAlign=middle;spacingLeft=4;spacingRight=4;overflow=hidden;points=[[0,0.5],[1,0.5]];portConstraint=eastwest;rotatable=0;whiteSpace=wrap;html=1;" vertex="1" parent="Q5q1Ceb7totYxLSW1xPY-22">
          <mxGeometry y="60" width="140" height="30" as="geometry" />
        </mxCell>
        <mxCell id="Q5q1Ceb7totYxLSW1xPY-26" style="edgeStyle=orthogonalEdgeStyle;rounded=0;orthogonalLoop=1;jettySize=auto;html=1;exitX=0;exitY=0.5;exitDx=0;exitDy=0;" edge="1" parent="WIyWlLk6GJQsqaUBKTNV-1" source="Q5q1Ceb7totYxLSW1xPY-23" target="zkfFHV4jXpPFQw0GAbJ--18">
          <mxGeometry relative="1" as="geometry" />
        </mxCell>
        <mxCell id="Q5q1Ceb7totYxLSW1xPY-29" style="edgeStyle=orthogonalEdgeStyle;rounded=0;orthogonalLoop=1;jettySize=auto;html=1;exitX=1;exitY=0.5;exitDx=0;exitDy=0;entryX=1;entryY=0.5;entryDx=0;entryDy=0;" edge="1" parent="WIyWlLk6GJQsqaUBKTNV-1" source="zkfFHV4jXpPFQw0GAbJ--7" target="Q5q1Ceb7totYxLSW1xPY-24">
          <mxGeometry relative="1" as="geometry" />
        </mxCell>
        <mxCell id="Q5q1Ceb7totYxLSW1xPY-31" style="edgeStyle=orthogonalEdgeStyle;rounded=0;orthogonalLoop=1;jettySize=auto;html=1;exitX=0;exitY=0.5;exitDx=0;exitDy=0;" edge="1" parent="WIyWlLk6GJQsqaUBKTNV-1" source="Q5q1Ceb7totYxLSW1xPY-30" target="zkfFHV4jXpPFQw0GAbJ--1">
          <mxGeometry relative="1" as="geometry" />
        </mxCell>
        <mxCell id="Q5q1Ceb7totYxLSW1xPY-33" value="" style="shape=table;startSize=0;container=1;collapsible=0;childLayout=tableLayout;" vertex="1" parent="WIyWlLk6GJQsqaUBKTNV-1">
          <mxGeometry x="99" y="790" width="630" height="320" as="geometry" />
        </mxCell>
        <mxCell id="Q5q1Ceb7totYxLSW1xPY-34" value="" style="shape=tableRow;horizontal=0;startSize=0;swimlaneHead=0;swimlaneBody=0;strokeColor=inherit;top=0;left=0;bottom=0;right=0;collapsible=0;dropTarget=0;fillColor=none;points=[[0,0.5],[1,0.5]];portConstraint=eastwest;" vertex="1" parent="Q5q1Ceb7totYxLSW1xPY-33">
          <mxGeometry width="630" height="53" as="geometry" />
        </mxCell>
        <mxCell id="Q5q1Ceb7totYxLSW1xPY-35" value="&lt;b&gt;&lt;font style=&quot;font-size: 14px;&quot;&gt;Tabla&lt;/font&gt;&lt;/b&gt;" style="shape=partialRectangle;html=1;whiteSpace=wrap;connectable=0;strokeColor=inherit;overflow=hidden;fillColor=none;top=0;left=0;bottom=0;right=0;pointerEvents=1;" vertex="1" parent="Q5q1Ceb7totYxLSW1xPY-34">
          <mxGeometry width="130" height="53" as="geometry">
            <mxRectangle width="130" height="53" as="alternateBounds" />
          </mxGeometry>
        </mxCell>
        <mxCell id="Q5q1Ceb7totYxLSW1xPY-36" value="&lt;b&gt;&lt;font style=&quot;font-size: 14px;&quot;&gt;Primary Key&lt;/font&gt;&lt;/b&gt;" style="shape=partialRectangle;html=1;whiteSpace=wrap;connectable=0;strokeColor=inherit;overflow=hidden;fillColor=none;top=0;left=0;bottom=0;right=0;pointerEvents=1;" vertex="1" parent="Q5q1Ceb7totYxLSW1xPY-34">
          <mxGeometry x="130" width="240" height="53" as="geometry">
            <mxRectangle width="240" height="53" as="alternateBounds" />
          </mxGeometry>
        </mxCell>
        <mxCell id="Q5q1Ceb7totYxLSW1xPY-37" value="&lt;b&gt;&lt;font style=&quot;font-size: 14px;&quot;&gt;Foraign Key&lt;/font&gt;&lt;/b&gt;" style="shape=partialRectangle;html=1;whiteSpace=wrap;connectable=0;strokeColor=inherit;overflow=hidden;fillColor=none;top=0;left=0;bottom=0;right=0;pointerEvents=1;" vertex="1" parent="Q5q1Ceb7totYxLSW1xPY-34">
          <mxGeometry x="370" width="260" height="53" as="geometry">
            <mxRectangle width="260" height="53" as="alternateBounds" />
          </mxGeometry>
        </mxCell>
        <mxCell id="Q5q1Ceb7totYxLSW1xPY-38" value="" style="shape=tableRow;horizontal=0;startSize=0;swimlaneHead=0;swimlaneBody=0;strokeColor=inherit;top=0;left=0;bottom=0;right=0;collapsible=0;dropTarget=0;fillColor=none;points=[[0,0.5],[1,0.5]];portConstraint=eastwest;" vertex="1" parent="Q5q1Ceb7totYxLSW1xPY-33">
          <mxGeometry y="53" width="630" height="54" as="geometry" />
        </mxCell>
        <mxCell id="Q5q1Ceb7totYxLSW1xPY-39" value="&lt;b&gt;people&lt;/b&gt;" style="shape=partialRectangle;html=1;whiteSpace=wrap;connectable=0;strokeColor=inherit;overflow=hidden;fillColor=none;top=0;left=0;bottom=0;right=0;pointerEvents=1;" vertex="1" parent="Q5q1Ceb7totYxLSW1xPY-38">
          <mxGeometry width="130" height="54" as="geometry">
            <mxRectangle width="130" height="54" as="alternateBounds" />
          </mxGeometry>
        </mxCell>
        <mxCell id="Q5q1Ceb7totYxLSW1xPY-40" value="person_id" style="shape=partialRectangle;html=1;whiteSpace=wrap;connectable=0;strokeColor=inherit;overflow=hidden;fillColor=none;top=0;left=0;bottom=0;right=0;pointerEvents=1;" vertex="1" parent="Q5q1Ceb7totYxLSW1xPY-38">
          <mxGeometry x="130" width="240" height="54" as="geometry">
            <mxRectangle width="240" height="54" as="alternateBounds" />
          </mxGeometry>
        </mxCell>
        <mxCell id="Q5q1Ceb7totYxLSW1xPY-41" value="Ninguna" style="shape=partialRectangle;html=1;whiteSpace=wrap;connectable=0;strokeColor=inherit;overflow=hidden;fillColor=none;top=0;left=0;bottom=0;right=0;pointerEvents=1;" vertex="1" parent="Q5q1Ceb7totYxLSW1xPY-38">
          <mxGeometry x="370" width="260" height="54" as="geometry">
            <mxRectangle width="260" height="54" as="alternateBounds" />
          </mxGeometry>
        </mxCell>
        <mxCell id="Q5q1Ceb7totYxLSW1xPY-42" value="" style="shape=tableRow;horizontal=0;startSize=0;swimlaneHead=0;swimlaneBody=0;strokeColor=inherit;top=0;left=0;bottom=0;right=0;collapsible=0;dropTarget=0;fillColor=none;points=[[0,0.5],[1,0.5]];portConstraint=eastwest;" vertex="1" parent="Q5q1Ceb7totYxLSW1xPY-33">
          <mxGeometry y="107" width="630" height="53" as="geometry" />
        </mxCell>
        <mxCell id="Q5q1Ceb7totYxLSW1xPY-43" value="&lt;b&gt;movies&lt;/b&gt;" style="shape=partialRectangle;html=1;whiteSpace=wrap;connectable=0;strokeColor=inherit;overflow=hidden;fillColor=none;top=0;left=0;bottom=0;right=0;pointerEvents=1;" vertex="1" parent="Q5q1Ceb7totYxLSW1xPY-42">
          <mxGeometry width="130" height="53" as="geometry">
            <mxRectangle width="130" height="53" as="alternateBounds" />
          </mxGeometry>
        </mxCell>
        <mxCell id="Q5q1Ceb7totYxLSW1xPY-44" value="movie_id" style="shape=partialRectangle;html=1;whiteSpace=wrap;connectable=0;strokeColor=inherit;overflow=hidden;fillColor=none;top=0;left=0;bottom=0;right=0;pointerEvents=1;" vertex="1" parent="Q5q1Ceb7totYxLSW1xPY-42">
          <mxGeometry x="130" width="240" height="53" as="geometry">
            <mxRectangle width="240" height="53" as="alternateBounds" />
          </mxGeometry>
        </mxCell>
        <mxCell id="Q5q1Ceb7totYxLSW1xPY-45" value="&lt;code&gt;director_id&lt;/code&gt; → &lt;code&gt;people(person_id)&lt;/code&gt;" style="shape=partialRectangle;html=1;whiteSpace=wrap;connectable=0;strokeColor=inherit;overflow=hidden;fillColor=none;top=0;left=0;bottom=0;right=0;pointerEvents=1;" vertex="1" parent="Q5q1Ceb7totYxLSW1xPY-42">
          <mxGeometry x="370" width="260" height="53" as="geometry">
            <mxRectangle width="260" height="53" as="alternateBounds" />
          </mxGeometry>
        </mxCell>
        <mxCell id="Q5q1Ceb7totYxLSW1xPY-46" value="" style="shape=tableRow;horizontal=0;startSize=0;swimlaneHead=0;swimlaneBody=0;strokeColor=inherit;top=0;left=0;bottom=0;right=0;collapsible=0;dropTarget=0;fillColor=none;points=[[0,0.5],[1,0.5]];portConstraint=eastwest;" vertex="1" parent="Q5q1Ceb7totYxLSW1xPY-33">
          <mxGeometry y="160" width="630" height="53" as="geometry" />
        </mxCell>
        <mxCell id="Q5q1Ceb7totYxLSW1xPY-47" value="&lt;b&gt;cast&lt;/b&gt;" style="shape=partialRectangle;html=1;whiteSpace=wrap;connectable=0;strokeColor=inherit;overflow=hidden;fillColor=none;top=0;left=0;bottom=0;right=0;pointerEvents=1;" vertex="1" parent="Q5q1Ceb7totYxLSW1xPY-46">
          <mxGeometry width="130" height="53" as="geometry">
            <mxRectangle width="130" height="53" as="alternateBounds" />
          </mxGeometry>
        </mxCell>
        <mxCell id="Q5q1Ceb7totYxLSW1xPY-48" value="&lt;code&gt;movie_id&lt;/code&gt;, &lt;code&gt;person_id&lt;/code&gt; (compuesta)" style="shape=partialRectangle;html=1;whiteSpace=wrap;connectable=0;strokeColor=inherit;overflow=hidden;fillColor=none;top=0;left=0;bottom=0;right=0;pointerEvents=1;" vertex="1" parent="Q5q1Ceb7totYxLSW1xPY-46">
          <mxGeometry x="130" width="240" height="53" as="geometry">
            <mxRectangle width="240" height="53" as="alternateBounds" />
          </mxGeometry>
        </mxCell>
        <mxCell id="Q5q1Ceb7totYxLSW1xPY-49" value="&lt;code&gt;movie_id&lt;/code&gt; → &lt;code&gt;movies(movie_id)&lt;/code&gt;&lt;br&gt;&lt;code&gt;person_id&lt;/code&gt; → &lt;code&gt;people(person_id)&lt;/code&gt;" style="shape=partialRectangle;html=1;whiteSpace=wrap;connectable=0;strokeColor=inherit;overflow=hidden;fillColor=none;top=0;left=0;bottom=0;right=0;pointerEvents=1;" vertex="1" parent="Q5q1Ceb7totYxLSW1xPY-46">
          <mxGeometry x="370" width="260" height="53" as="geometry">
            <mxRectangle width="260" height="53" as="alternateBounds" />
          </mxGeometry>
        </mxCell>
        <mxCell id="Q5q1Ceb7totYxLSW1xPY-50" value="" style="shape=tableRow;horizontal=0;startSize=0;swimlaneHead=0;swimlaneBody=0;strokeColor=inherit;top=0;left=0;bottom=0;right=0;collapsible=0;dropTarget=0;fillColor=none;points=[[0,0.5],[1,0.5]];portConstraint=eastwest;" vertex="1" parent="Q5q1Ceb7totYxLSW1xPY-33">
          <mxGeometry y="213" width="630" height="54" as="geometry" />
        </mxCell>
        <mxCell id="Q5q1Ceb7totYxLSW1xPY-51" value="&lt;b&gt;genres&lt;/b&gt;" style="shape=partialRectangle;html=1;whiteSpace=wrap;connectable=0;strokeColor=inherit;overflow=hidden;fillColor=none;top=0;left=0;bottom=0;right=0;pointerEvents=1;" vertex="1" parent="Q5q1Ceb7totYxLSW1xPY-50">
          <mxGeometry width="130" height="54" as="geometry">
            <mxRectangle width="130" height="54" as="alternateBounds" />
          </mxGeometry>
        </mxCell>
        <mxCell id="Q5q1Ceb7totYxLSW1xPY-52" value="genre_id" style="shape=partialRectangle;html=1;whiteSpace=wrap;connectable=0;strokeColor=inherit;overflow=hidden;fillColor=none;top=0;left=0;bottom=0;right=0;pointerEvents=1;" vertex="1" parent="Q5q1Ceb7totYxLSW1xPY-50">
          <mxGeometry x="130" width="240" height="54" as="geometry">
            <mxRectangle width="240" height="54" as="alternateBounds" />
          </mxGeometry>
        </mxCell>
        <mxCell id="Q5q1Ceb7totYxLSW1xPY-53" value="Ninguna" style="shape=partialRectangle;html=1;whiteSpace=wrap;connectable=0;strokeColor=inherit;overflow=hidden;fillColor=none;top=0;left=0;bottom=0;right=0;pointerEvents=1;" vertex="1" parent="Q5q1Ceb7totYxLSW1xPY-50">
          <mxGeometry x="370" width="260" height="54" as="geometry">
            <mxRectangle width="260" height="54" as="alternateBounds" />
          </mxGeometry>
        </mxCell>
        <mxCell id="Q5q1Ceb7totYxLSW1xPY-54" value="" style="shape=tableRow;horizontal=0;startSize=0;swimlaneHead=0;swimlaneBody=0;strokeColor=inherit;top=0;left=0;bottom=0;right=0;collapsible=0;dropTarget=0;fillColor=none;points=[[0,0.5],[1,0.5]];portConstraint=eastwest;" vertex="1" parent="Q5q1Ceb7totYxLSW1xPY-33">
          <mxGeometry y="267" width="630" height="53" as="geometry" />
        </mxCell>
        <mxCell id="Q5q1Ceb7totYxLSW1xPY-55" value="&lt;b&gt;movie_genres&lt;/b&gt;" style="shape=partialRectangle;html=1;whiteSpace=wrap;connectable=0;strokeColor=inherit;overflow=hidden;fillColor=none;top=0;left=0;bottom=0;right=0;pointerEvents=1;" vertex="1" parent="Q5q1Ceb7totYxLSW1xPY-54">
          <mxGeometry width="130" height="53" as="geometry">
            <mxRectangle width="130" height="53" as="alternateBounds" />
          </mxGeometry>
        </mxCell>
        <mxCell id="Q5q1Ceb7totYxLSW1xPY-56" value="&lt;code&gt;movie_id&lt;/code&gt;, &lt;code&gt;genre_id&lt;/code&gt; (compuesta)" style="shape=partialRectangle;html=1;whiteSpace=wrap;connectable=0;strokeColor=inherit;overflow=hidden;fillColor=none;top=0;left=0;bottom=0;right=0;pointerEvents=1;" vertex="1" parent="Q5q1Ceb7totYxLSW1xPY-54">
          <mxGeometry x="130" width="240" height="53" as="geometry">
            <mxRectangle width="240" height="53" as="alternateBounds" />
          </mxGeometry>
        </mxCell>
        <mxCell id="Q5q1Ceb7totYxLSW1xPY-57" value="&lt;code&gt;movie_id&lt;/code&gt; → &lt;code&gt;movies(movie_id)&lt;/code&gt;&lt;br&gt;&lt;code&gt;genre_id&lt;/code&gt; → &lt;code&gt;genres(genre_id)&lt;/code&gt;" style="shape=partialRectangle;html=1;whiteSpace=wrap;connectable=0;strokeColor=inherit;overflow=hidden;fillColor=none;top=0;left=0;bottom=0;right=0;pointerEvents=1;" vertex="1" parent="Q5q1Ceb7totYxLSW1xPY-54">
          <mxGeometry x="370" width="260" height="53" as="geometry">
            <mxRectangle width="260" height="53" as="alternateBounds" />
          </mxGeometry>
        </mxCell>
      </root>
    </mxGraphModel>
  </diagram>
</mxfile>
